<svg width="85" height="85" viewBox="0 0 85 85" fill="none" xmlns="http://www.w3.org/2000/svg">
<g clip-path="url(#clip0_227_59)" filter="url(#filter0_d_227_59)">
<path d="M16.1019 0.0751953H69.047C75.6837 0.0751953 81.0737 5.4652 81.0737 12.1019V65.047C81.0737 71.6837 75.6837 77.0737 69.047 77.0737H16.1019C9.46519 77.0737 4.0752 71.6837 4.0752 65.047V12.1019C4.0752 5.4652 9.46519 0.0751953 16.1019 0.0751953Z" fill="#00005B"/>
<path d="M35.6919 47.0753H23.9419L21.5552 54.837C21.4935 55.1137 21.2318 55.3137 20.9386 55.2987H14.9786C14.6402 55.2987 14.5169 55.1137 14.6237 54.7437L24.8036 25.8537C24.9119 25.5454 25.0036 25.207 25.1119 24.807C25.2503 24.1287 25.3119 23.4369 25.3119 22.7436C25.2818 22.5737 25.4037 22.4052 25.5736 22.3887C25.6037 22.3887 25.6353 22.3887 25.6653 22.3887H33.7503C33.9819 22.3887 34.1203 22.4804 34.1504 22.6504L45.7004 54.8054C45.8087 55.1438 45.7004 55.3137 45.3921 55.3137H38.8004C38.5688 55.3438 38.3538 55.1904 38.2921 54.9588L35.6919 47.0753ZM25.7736 41.6703H33.812C33.612 40.992 33.3653 39.6069 33.1037 38.7602C32.842 37.9135 32.5487 37.0051 32.2419 36.0351C31.9351 35.0651 31.6253 34.0951 31.3336 33.1401C31.0403 32.1851 30.7485 31.2452 30.4869 30.3368C30.2252 29.4435 30.0101 28.6118 29.7936 27.8734H29.7469C29.4537 29.2435 29.1003 30.5985 28.6837 31.9385C28.2069 33.4634 27.7287 35.0185 27.2354 36.6201C26.7286 38.2053 26.2519 40.3152 25.7736 41.6703Z" fill="#9999FF"/>
<path d="M64.3669 44.3036H54.3569C54.4952 45.3353 54.8501 46.3204 55.3885 47.2137C55.9585 48.0604 56.7586 48.7236 57.6985 49.1236C58.9919 49.7087 60.4086 50.0019 61.8253 50.0019C62.7802 50.032 63.7352 49.9553 64.6736 49.7869C65.6903 49.6019 66.6904 49.3101 67.6454 48.8935C67.8153 48.7552 67.892 48.8469 67.907 49.1402V53.9752C67.9221 54.1136 67.892 54.2369 67.8303 54.3602C67.7687 54.452 67.692 54.5302 67.5987 54.5918C66.552 55.0851 65.4271 55.4536 64.2871 55.6852C62.9171 55.8852 61.5455 55.9318 60.1604 55.8551C58.082 55.9168 56.0172 55.5318 54.1087 54.7302C52.5687 54.0519 51.2137 53.0203 50.1354 51.7269C49.1338 50.5102 48.3954 49.0936 47.9487 47.5836C47.502 46.0903 47.287 44.5337 47.287 42.9787C47.287 41.2853 47.5487 39.5904 48.072 37.9737C48.5803 36.4036 49.3804 34.9238 50.4437 33.6469C51.4904 32.3837 52.7838 31.352 54.2636 30.6436C55.9269 29.8736 57.7286 29.5037 59.5619 29.5503C61.3335 29.5202 63.1036 29.8736 64.7368 30.5669C66.0452 31.152 67.1852 32.0603 68.0635 33.1852C68.8951 34.2635 69.5268 35.4802 69.9418 36.7736C70.3419 38.0203 70.5419 39.3302 70.5584 40.6386C70.5584 41.3785 70.5284 42.0703 70.4817 42.6719C70.4351 43.0418 70.3735 43.3953 70.2817 43.7502C70.2516 43.9818 70.0501 44.1502 69.82 44.1502C69.62 44.1502 69.2651 44.1803 68.7733 44.2269C68.2815 44.2735 67.4032 44.257 66.6784 44.2735C65.952 44.3036 65.182 44.3036 64.3669 44.3036ZM54.3253 40.2686H60.9936C61.8102 40.2686 62.4103 40.2536 62.7953 40.2386C63.0419 40.2386 63.2886 40.2085 63.5352 40.1619V39.8536C63.5653 39.237 63.5352 38.6369 63.4269 38.0368C62.8569 36.2502 61.1786 35.0651 59.3002 35.1418C57.5451 35.0335 55.8969 35.9735 55.0953 37.5285C54.7253 38.4053 54.4636 39.3302 54.3253 40.2686Z" fill="#9999FF"/>
</g>
<defs>
<filter id="filter0_d_227_59" x="0" y="0" width="85" height="85" filterUnits="userSpaceOnUse" color-interpolation-filters="sRGB">
<feFlood flood-opacity="0" result="BackgroundImageFix"/>
<feColorMatrix in="SourceAlpha" type="matrix" values="0 0 0 0 0 0 0 0 0 0 0 0 0 0 0 0 0 0 127 0" result="hardAlpha"/>
<feOffset dy="4"/>
<feGaussianBlur stdDeviation="2"/>
<feComposite in2="hardAlpha" operator="out"/>
<feColorMatrix type="matrix" values="0 0 0 0 0 0 0 0 0 0 0 0 0 0 0 0 0 0 0.25 0"/>
<feBlend mode="normal" in2="BackgroundImageFix" result="effect1_dropShadow_227_59"/>
<feBlend mode="normal" in="SourceGraphic" in2="effect1_dropShadow_227_59" result="shape"/>
</filter>
<clipPath id="clip0_227_59">
<rect width="77" height="77" fill="white" transform="translate(4)"/>
</clipPath>
</defs>
</svg>
