<svg width="118" height="118" viewBox="0 0 118 118" fill="none" xmlns="http://www.w3.org/2000/svg">
<g filter="url(#filter0_d_222_30)">
<circle cx="65" cy="58" r="49" fill="#D7A5FF"/>
</g>
<path d="M80.7064 64.9858L60.5129 45.9966C60.158 45.6629 59.7294 45.4178 59.2619 45.281C58.7944 45.1443 58.3013 45.1198 57.8225 45.2096L51.4019 46.4123L47.1743 44.9182L39.528 59.3634C39.528 59.3634 45.7763 67.3416 47.9613 69.2945C50.1464 71.2475 62.0587 76.0593 65.9651 77.0748C69.8714 78.0902 70.127 74.4778 70.127 74.4778C73.3285 75.0242 74.0547 71.8728 74.0547 71.8728C78.8986 72.2634 78.039 68.9824 78.039 68.9824C79.7262 69.3794 80.6285 68.8799 81.1087 68.1719C81.4294 67.679 81.5649 67.0885 81.4912 66.5052C81.4176 65.9218 81.1395 65.3835 80.7064 64.9858Z" fill="#DDB087"/>
<path d="M80.4594 46.5605L78.0375 47.2632L67.9393 46.109C67.385 46.0455 66.824 46.0749 66.2794 46.196L59.8934 47.6154C58.6337 47.895 57.53 48.649 56.8114 49.7209C55.9758 50.9663 54.8809 52.6609 54.2235 53.925C54.1542 54.0572 54.1161 54.2035 54.1122 54.3528C54.1082 54.502 54.1386 54.6501 54.2009 54.7858C54.2632 54.9214 54.3558 55.041 54.4716 55.1352C54.5873 55.2295 54.7232 55.2959 54.8686 55.3294C56.5761 55.7195 59.8182 56.0076 61.7113 53.2788L66.0083 52.8103L80.8761 65.1613L87.8832 60.9353L89.7582 58.826L80.4594 46.5605Z" fill="#F0C191"/>
<path d="M63.6962 72.6092C63.2611 72.3689 62.7484 72.3113 62.2708 72.449C61.7932 72.5867 61.3899 72.9084 61.1494 73.3434L59.9222 75.5695C59.8031 75.785 59.7276 76.0218 59.7 76.2665C59.6724 76.5111 59.6932 76.7588 59.7613 76.9954C59.8295 77.232 59.9435 77.4529 60.097 77.6454C60.2505 77.8379 60.4404 77.9983 60.6559 78.1174C60.8713 78.2365 61.1082 78.3121 61.3528 78.3396C61.5975 78.3672 61.8452 78.3464 62.0818 78.2783C62.3183 78.2101 62.5392 78.0961 62.7317 77.9426C62.9242 77.7891 63.0846 77.5992 63.2037 77.3837L64.431 75.1571C64.5502 74.9416 64.6257 74.7047 64.6533 74.46C64.6809 74.2152 64.66 73.9675 64.5917 73.7308C64.5235 73.4942 64.4093 73.2734 64.2556 73.0809C64.102 72.8884 63.9119 72.7282 63.6962 72.6092Z" fill="#F0C191"/>
<path d="M60.5289 69.8035C60.2697 69.6604 59.9849 69.5697 59.6907 69.5367C59.3965 69.5036 59.0987 69.5288 58.8142 69.6109C58.5298 69.6929 58.2643 69.8302 58.0329 70.0149C57.8015 70.1996 57.6087 70.428 57.4656 70.6871L55.9865 73.3647C55.6974 73.8883 55.6281 74.5053 55.7939 75.08C55.9597 75.6547 56.347 76.1399 56.8706 76.4291C57.3942 76.7182 58.0113 76.7874 58.5859 76.6216C59.1606 76.4558 59.6459 76.0685 59.935 75.5449L61.4104 72.8674C61.6996 72.3442 61.7692 71.7275 61.6039 71.153C61.4386 70.5784 61.052 70.093 60.5289 69.8035Z" fill="#F0C191"/>
<path d="M56.582 67.6231C56.0586 67.334 55.4419 67.2647 54.8674 67.4303C54.2929 67.5959 53.8078 67.9829 53.5186 68.5062L52.0395 71.1843C51.7504 71.7079 51.6812 72.3249 51.847 72.8996C52.0128 73.4743 52.4001 73.9595 52.9237 74.2486C53.4473 74.5378 54.0643 74.607 54.639 74.4412C55.2137 74.2754 55.699 73.8881 55.9881 73.3645L57.4672 70.687C57.6103 70.4277 57.7008 70.1427 57.7338 69.8484C57.7667 69.5541 57.7414 69.2562 57.6592 68.9717C57.577 68.6872 57.4395 68.4216 57.2547 68.1903C57.0699 67.9589 56.8413 67.7661 56.582 67.6231Z" fill="#F0C191"/>
<path d="M52.635 65.4429C52.1117 65.1538 51.495 65.0845 50.9205 65.2501C50.346 65.4157 49.8608 65.8027 49.5717 66.326L48.0921 69.0036C47.9489 69.2628 47.8582 69.5477 47.8251 69.8421C47.792 70.1364 47.8172 70.4344 47.8993 70.7189C47.9814 71.0035 48.1187 71.2691 48.3034 71.5007C48.4882 71.7322 48.7167 71.925 48.976 72.0682C49.2352 72.2114 49.5201 72.3021 49.8145 72.3352C50.1088 72.3683 50.4068 72.343 50.6913 72.261C50.9759 72.1789 51.2415 72.0416 51.4731 71.8568C51.7046 71.6721 51.8974 71.4436 52.0406 71.1843L53.5197 68.5063C53.6628 68.247 53.7534 67.9622 53.7864 67.6679C53.8193 67.3737 53.794 67.0758 53.7119 66.7913C53.6297 66.5069 53.4923 66.2414 53.3076 66.01C53.1228 65.7787 52.8943 65.586 52.635 65.4429Z" fill="#F0C191"/>
<path d="M87.2087 39.6258L79.0852 44.7691C78.6714 45.0311 78.5483 45.579 78.8103 45.9929L88.9033 61.9342C89.1654 62.3481 89.7133 62.4711 90.1272 62.2091L98.2507 57.0658C98.6645 56.8038 98.7876 56.2559 98.5256 55.842L88.4326 39.9007C88.1705 39.4868 87.6226 39.3638 87.2087 39.6258Z" fill="#F26176"/>
<path d="M98.5175 55.8442L95.7488 51.472C95.7343 51.4859 95.7189 51.4987 95.7039 51.5126L95.8219 51.6994C95.9472 51.8982 95.9887 52.1385 95.9372 52.3679C95.8857 52.5972 95.7454 52.7968 95.5471 52.9229L87.4254 58.0656C87.2737 58.1607 87.0969 58.2077 86.9181 58.2006C86.7393 58.1934 86.5668 58.1324 86.4233 58.0255L88.897 61.9362C89.023 62.1346 89.2226 62.275 89.4519 62.3265C89.6813 62.378 89.9217 62.3365 90.1205 62.211L98.2427 57.0688C98.441 56.9424 98.5812 56.7427 98.6327 56.5132C98.6842 56.2838 98.6428 56.0433 98.5175 55.8442Z" fill="#E95A6A"/>
<path d="M41.7724 38.7122L30.5285 53.8611C30.2366 54.2544 30.3188 54.8099 30.7121 55.1018L38.4318 60.8315C38.8251 61.1234 39.3806 61.0412 39.6725 60.6479L50.9163 45.499C51.2082 45.1057 51.126 44.5502 50.7328 44.2583L43.013 38.5286C42.6197 38.2367 42.0643 38.3189 41.7724 38.7122Z" fill="#6BB3D9"/>
<path d="M42.6175 56.5839L42.4654 56.7888C42.3959 56.8824 42.3087 56.9614 42.2086 57.0213C42.1086 57.0811 41.9977 57.1207 41.8823 57.1376C41.767 57.1545 41.6494 57.1484 41.5364 57.1198C41.4234 57.0912 41.3171 57.0405 41.2237 56.9707L33.5038 51.2427C33.3594 51.1361 33.2507 50.9882 33.1924 50.8184C33.1341 50.6487 33.1288 50.4652 33.1773 50.2924L30.5307 53.8583C30.3906 54.0472 30.3311 54.2839 30.3651 54.5166C30.3991 54.7493 30.5239 54.959 30.7121 55.1L38.4352 60.828C38.5289 60.8974 38.6354 60.9477 38.7486 60.9759C38.8617 61.0041 38.9793 61.0098 39.0947 60.9925C39.21 60.9752 39.3208 60.9353 39.4207 60.8751C39.5206 60.8149 39.6077 60.7356 39.6769 60.6418L42.6543 56.6276C42.642 56.6132 42.6281 56.5988 42.6175 56.5839Z" fill="#4FA4D1"/>
<defs>
<filter id="filter0_d_222_30" x="0" y="0" width="118" height="118" filterUnits="userSpaceOnUse" color-interpolation-filters="sRGB">
<feFlood flood-opacity="0" result="BackgroundImageFix"/>
<feColorMatrix in="SourceAlpha" type="matrix" values="0 0 0 0 0 0 0 0 0 0 0 0 0 0 0 0 0 0 127 0" result="hardAlpha"/>
<feOffset dx="-6" dy="1"/>
<feGaussianBlur stdDeviation="5"/>
<feComposite in2="hardAlpha" operator="out"/>
<feColorMatrix type="matrix" values="0 0 0 0 0.2144 0 0 0 0 0.0100001 0 0 0 0 0.375 0 0 0 0.46 0"/>
<feBlend mode="normal" in2="BackgroundImageFix" result="effect1_dropShadow_222_30"/>
<feBlend mode="normal" in="SourceGraphic" in2="effect1_dropShadow_222_30" result="shape"/>
</filter>
</defs>
</svg>
