<svg width="118" height="118" viewBox="0 0 118 118" fill="none" xmlns="http://www.w3.org/2000/svg">
<g filter="url(#filter0_d_222_28)">
<circle cx="65" cy="58" r="49" fill="#D7A5FF"/>
</g>
<path d="M79.9863 31H45.195C43.2793 31 41.7264 32.5529 41.7264 34.4687V40.7547C41.7264 42.6704 43.2794 44.2234 45.1951 44.2234H48.549L49.1223 44.7936H53.1856L53.8711 44.2234H79.9863C81.9019 44.2234 83.4549 42.6704 83.4549 40.7547V34.4687C83.4549 32.5529 81.9019 31 79.9863 31V31Z" fill="#95D6A4"/>
<path d="M47.9636 44.2233C48.4115 44.2233 48.7504 44.6286 48.671 45.0694L47.8886 49.4133C47.8195 49.7968 48.2806 50.0455 48.5632 49.7772L54.206 44.4207C54.3395 44.294 54.5167 44.2233 54.7009 44.2233H47.9636Z" fill="#78C2A4"/>
<path d="M85.8051 31H79.3131C81.2288 31 82.7818 32.5529 82.7818 34.4687V40.7547C82.7818 42.6704 81.2289 44.2234 79.3132 44.2234H76.2992C76.4834 44.2234 76.6605 44.2941 76.7941 44.4209L82.4369 49.7774C82.7195 50.0456 83.1804 49.7969 83.1114 49.4135L82.3291 45.0696C82.2497 44.6288 82.5885 44.2234 83.0365 44.2234H85.8051C87.7207 44.2234 89.2738 42.6704 89.2738 40.7547V34.4687C89.2737 32.5529 87.7207 31 85.8051 31V31Z" fill="#78C2A4"/>
<path d="M45.7332 80.7046C45.2728 78.1428 47.1647 75.7582 49.7641 75.6242C52.0641 75.5055 53.867 73.6041 53.8633 71.3011L53.8432 58.9552C53.8432 58.4339 53.802 57.825 53.7089 57.2113C53.5702 56.3017 53.387 55.7415 53.2507 55.3071H48.3823C44.8503 55.3071 41.987 58.1705 41.987 61.7025V81.0065H45.7874L45.7332 80.7046Z" fill="#D5985C"/>
<path d="M61.101 67.4269L59.7771 64.6479C59.6986 64.4829 59.6567 64.303 59.6545 64.1203L59.6293 62.0873C59.6293 59.5323 58.7441 57.1701 57.2629 55.3071H52.3333C52.357 55.4871 52.3983 55.6664 52.4594 55.8424C52.8471 56.961 53.0581 58.1608 53.0581 59.4067L53.0772 71.0762C53.0808 73.2531 51.3766 75.0503 49.2026 75.1625C46.7456 75.2893 44.9572 77.5432 45.3924 79.9647L45.5796 81.0065H51.6061L51.1435 78.082C50.9868 77.092 51.7524 76.1963 52.7548 76.197L56.5307 76.1996C57.713 76.2014 58.6725 75.2435 58.6726 74.0612L58.6729 70.5216C58.673 69.818 59.2376 69.2229 59.9412 69.2334C60.879 69.2475 61.5037 68.2722 61.101 67.4269Z" fill="#C38959"/>
<path d="M46.9128 70.3007V68.7373C46.9128 67.9043 47.2984 67.1181 47.957 66.6081L50.6417 64.5293C51.6436 63.7535 52.2301 62.5577 52.2301 61.2904C52.2301 59.9789 52.8473 58.8123 53.8061 58.0625C53.7841 57.786 53.7523 57.5005 53.7088 57.2134C53.4874 55.7621 53.1529 55.1999 53.0763 54.6201H53.0769C53.0345 54.2972 53.0481 53.972 53.1135 53.6566L52.7936 53.3895H48.8929C43.2523 53.3895 39.0379 58.575 40.191 64.0964L41.9869 72.6963H44.5172C45.8403 72.6963 46.9128 71.6238 46.9128 70.3007Z" fill="#6B61B1"/>
<path d="M59.7356 53.3877H52.7936C52.3077 54.1107 52.1713 55.0119 52.4593 55.8426C52.7879 56.7906 52.988 57.7974 53.0418 58.8408C53.7887 57.8402 54.9818 57.1924 56.3263 57.1924H56.8424C58.692 57.1924 60.1913 55.693 60.1913 53.8436C60.1915 53.5918 59.9874 53.3877 59.7356 53.3877Z" fill="#5E54AC"/>
<path d="M45.8149 78.7533L41.4347 78.3317C40.7468 78.2655 40.1514 78.8063 40.1514 79.4974V80.8812C40.1514 81.5279 40.6757 82.0523 41.3225 82.0523H46.9108L47.2348 81.562V80.6297C47.2348 79.7388 46.6364 78.9862 45.8149 78.7533Z" fill="#E28086"/>
<path d="M52.344 79.3815L45.243 78.698C46.1896 78.8369 46.9109 79.6508 46.9109 80.6294V82.052H52.2318C52.8785 82.052 53.4029 81.5277 53.4029 80.8809V80.5472C53.4028 79.9439 52.9444 79.4394 52.344 79.3815Z" fill="#DD636E"/>
<path d="M79.3938 81.0067H83.2191V74.4615C83.2191 73.2866 83.3402 72.1148 83.5804 70.9647L84.3517 67.271L85.0151 64.0946C85.7132 60.7496 84.4417 57.3802 81.8336 55.3074H73.7372C72.2559 57.1704 71.3708 59.5326 71.3708 62.0876L71.3456 64.1206C71.3433 64.3033 71.3014 64.4833 71.2229 64.6482L69.8991 67.4273C69.4964 68.2726 70.1211 69.2478 71.059 69.2337C71.7626 69.223 72.3271 69.8182 72.3271 70.5219L72.3274 74.0614C72.3275 75.2437 73.287 76.2017 74.4694 76.1999L78.2453 76.1973C79.2477 76.1966 80.0132 77.0922 79.8566 78.0822L79.3938 81.0067Z" fill="#FFDDCE"/>
<path d="M82.6178 55.3074H81.1357C83.656 57.3105 85.0393 60.6366 84.3172 64.0946L82.8824 70.9647C82.6422 72.1148 82.5212 73.2866 82.5212 74.4615V81.0067H89.0131V61.7027C89.0131 58.1707 86.1499 55.3074 82.6178 55.3074Z" fill="#FFCBBE"/>
<path d="M84.0816 68.5653L84.3518 67.2713L85.0152 64.0948C85.7132 60.7498 84.4417 57.3804 81.8336 55.3076C80.3298 54.1123 78.4212 53.3879 76.3132 53.3879H71.2644C71.0127 53.3879 70.8086 53.5921 70.8086 53.8438C70.8086 55.6934 72.3079 57.1927 74.1574 57.1927H74.6736C76.9359 57.1927 78.7699 59.0266 78.7699 61.2889C78.7699 62.5562 79.3564 63.7519 80.3583 64.5278L83.0431 66.6066C83.6567 67.0815 84.0328 67.7963 84.0816 68.5653Z" fill="#E49542"/>
<path d="M82.1072 53.3877H75.6153C81.2558 53.3877 85.4702 58.5731 84.3171 64.0946L83.6538 67.271C83.9331 67.702 84.0873 68.2093 84.0873 68.7355V70.299C84.0873 71.622 85.1598 72.6945 86.4828 72.6945H89.0131L90.809 64.0946C91.9622 58.5731 87.7477 53.3877 82.1072 53.3877Z" fill="#E27D47"/>
<path d="M82.7794 78.9847L78.6563 79.3816C78.0557 79.4394 77.5974 79.944 77.5974 80.5473V80.8811C77.5974 81.5278 78.1217 82.0522 78.7685 82.0522H84.3567L84.4398 81.7874V80.7497C84.4397 79.7998 83.6957 79.041 82.7794 78.9847Z" fill="#B1E4F9"/>
<path d="M89.5654 78.3317L82.4858 79.0132C83.4943 78.9459 84.3567 79.7442 84.3567 80.7622V82.0523H89.6776C90.3243 82.0523 90.8487 81.528 90.8487 80.8812V79.4973C90.8487 78.8063 90.2533 78.2655 89.5654 78.3317Z" fill="#90D8F9"/>
<path d="M83.3897 36.2353H47.6112C47.1857 36.2353 46.8408 35.8904 46.8408 35.465C46.8408 35.0395 47.1857 34.6946 47.6112 34.6946H83.3898C83.8154 34.6946 84.1602 35.0395 84.1602 35.465C84.1602 35.8904 83.8153 36.2353 83.3897 36.2353Z" fill="#F0F7FF"/>
<path d="M65.4999 40.1108H47.6106C47.1852 40.1108 46.8403 39.7659 46.8403 39.3404C46.8403 38.9149 47.1852 38.5701 47.6106 38.5701H65.4999C65.9255 38.5701 66.2703 38.915 66.2703 39.3404C66.2703 39.7659 65.9255 40.1108 65.4999 40.1108Z" fill="#F0F7FF"/>
<defs>
<filter id="filter0_d_222_28" x="0" y="0" width="118" height="118" filterUnits="userSpaceOnUse" color-interpolation-filters="sRGB">
<feFlood flood-opacity="0" result="BackgroundImageFix"/>
<feColorMatrix in="SourceAlpha" type="matrix" values="0 0 0 0 0 0 0 0 0 0 0 0 0 0 0 0 0 0 127 0" result="hardAlpha"/>
<feOffset dx="-6" dy="1"/>
<feGaussianBlur stdDeviation="5"/>
<feComposite in2="hardAlpha" operator="out"/>
<feColorMatrix type="matrix" values="0 0 0 0 0.2144 0 0 0 0 0.0100001 0 0 0 0 0.375 0 0 0 0.46 0"/>
<feBlend mode="normal" in2="BackgroundImageFix" result="effect1_dropShadow_222_28"/>
<feBlend mode="normal" in="SourceGraphic" in2="effect1_dropShadow_222_28" result="shape"/>
</filter>
</defs>
</svg>
