<svg width="40" height="40" viewBox="0 0 40 40" fill="none" xmlns="http://www.w3.org/2000/svg">
<circle cx="20" cy="20" r="20" fill="#F9F9F9"/>
<g opacity="0.5">
<path fill-rule="evenodd" clip-rule="evenodd" d="M27.0714 27.0699C24.0152 30.1263 19.4898 30.7867 15.7864 29.074C15.2397 28.8539 14.7915 28.676 14.3654 28.676C13.1785 28.683 11.7012 29.8339 10.9334 29.067C10.1656 28.2991 11.3173 26.8206 11.3173 25.6266C11.3173 25.2004 11.1464 24.7602 10.9263 24.2124C9.21283 20.5096 9.87411 15.9827 12.9303 12.9272C16.8316 9.02443 23.17 9.02443 27.0714 12.9262C30.9797 16.835 30.9727 23.1681 27.0714 27.0699Z" stroke="#222222" stroke-width="1.5" stroke-linecap="round" stroke-linejoin="round"/>
<path d="M23.9394 20.4131H23.9484" stroke="#222222" stroke-width="2" stroke-linecap="round" stroke-linejoin="round"/>
<path d="M19.9304 20.4131H19.9394" stroke="#222222" stroke-width="2" stroke-linecap="round" stroke-linejoin="round"/>
<path d="M15.9214 20.4131H15.9304" stroke="#222222" stroke-width="2" stroke-linecap="round" stroke-linejoin="round"/>
</g>
</svg>
