<svg width="40" height="40" viewBox="0 0 40 40" fill="none" xmlns="http://www.w3.org/2000/svg">
<circle cx="20" cy="20" r="20" fill="#F9F9F9"/>
<path d="M17.0907 28.9766V25.8381C17.0907 25.0399 17.7415 24.3912 18.5478 24.3859H21.5014C22.3116 24.3859 22.9683 25.0361 22.9683 25.8381V25.8381V28.9864C22.9682 29.6641 23.5146 30.2181 24.199 30.234H26.1681C28.131 30.234 29.7222 28.6586 29.7222 26.7154V26.7154V17.7873C29.7117 17.0228 29.3492 16.3049 28.7377 15.8379L22.0035 10.4674C20.8238 9.53234 19.1467 9.53234 17.9669 10.4674L11.2623 15.8477C10.6485 16.3128 10.2853 17.0319 10.2778 17.797V26.7154C10.2778 28.6586 11.869 30.234 13.8319 30.234H15.801C16.5024 30.234 17.071 29.671 17.071 28.9766V28.9766" stroke="#8D8D8D" stroke-width="1.5" stroke-linecap="round" stroke-linejoin="round"/>
</svg>
