<svg width="85" height="85" viewBox="0 0 85 85" fill="none" xmlns="http://www.w3.org/2000/svg">
<g filter="url(#filter0_d_227_35)">
<path d="M16.027 0H68.973C75.6099 0 81 5.39011 81 12.027V64.973C81 71.6099 75.6099 77 68.973 77H16.027C9.3901 77 4 71.6099 4 64.973V12.027C4 5.39011 9.3901 0 16.027 0Z" fill="#330000"/>
<path d="M41.5458 46.8793H29.7956L27.3938 54.7328C27.3321 55.0096 27.0704 55.2096 26.7772 55.1945H20.8171C20.4787 55.1945 20.3554 55.0096 20.4622 54.6396L30.6107 25.3324C30.719 25.0241 30.8107 24.6857 30.919 24.2857C31.0574 23.7157 31.1341 23.1306 31.1191 22.5456C31.089 22.3757 31.2108 22.2072 31.3807 22.1907C31.4108 22.1907 31.4424 22.1907 31.4725 22.1907H39.5576C39.7892 22.1907 39.9276 22.2824 39.9577 22.4524L51.538 54.6847C51.6463 55.0231 51.538 55.193 51.2297 55.193H44.6229C44.3913 55.2231 44.1762 55.0697 44.1146 54.8381L41.5458 46.8793ZM31.5507 41.4576H40.1592C39.9592 40.7793 39.2508 39.2092 38.9891 38.3625C38.7274 37.5158 38.3425 36.8375 38.0342 35.8675C37.7258 34.8974 37.4175 33.9274 37.1258 32.9724C36.8175 32.0023 36.5407 31.0774 36.279 30.1691C36.0174 29.2757 35.8023 28.444 35.5857 27.7056H35.5391C35.2458 29.0757 34.8924 30.4307 34.4758 31.7707C33.9991 33.2957 33.5208 34.8508 33.0275 36.4525C32.5373 38.0542 32.0289 40.1025 31.5507 41.4576Z" fill="#FF9A00"/>
<path d="M58.4395 27.4889C57.3928 27.5355 56.3761 27.1189 55.6362 26.3639C54.9128 25.5789 54.5278 24.5306 54.5729 23.4688C54.5428 22.4056 54.9579 21.3739 55.7129 20.6505C56.4679 19.9271 57.4845 19.5255 58.5312 19.5571C59.5945 19.4955 60.6413 19.8955 61.4113 20.6505C62.1196 21.4205 62.4896 22.4371 62.458 23.4688C62.5046 24.5472 62.1031 25.5939 61.3647 26.3639C60.5811 27.1354 59.5178 27.5355 58.4395 27.4889ZM55.1444 54.671V31.4171C55.1444 31.1088 55.2828 30.9554 55.5444 30.9554H61.3196C61.5963 30.9554 61.7196 31.1088 61.7196 31.4171V54.671C61.7196 55.0094 61.5812 55.1793 61.3196 55.1793H55.5911C55.2978 55.1793 55.1444 55.0094 55.1444 54.671Z" fill="#FF9A00"/>
</g>
<defs>
<filter id="filter0_d_227_35" x="0" y="0" width="85" height="85" filterUnits="userSpaceOnUse" color-interpolation-filters="sRGB">
<feFlood flood-opacity="0" result="BackgroundImageFix"/>
<feColorMatrix in="SourceAlpha" type="matrix" values="0 0 0 0 0 0 0 0 0 0 0 0 0 0 0 0 0 0 127 0" result="hardAlpha"/>
<feOffset dy="4"/>
<feGaussianBlur stdDeviation="2"/>
<feComposite in2="hardAlpha" operator="out"/>
<feColorMatrix type="matrix" values="0 0 0 0 0 0 0 0 0 0 0 0 0 0 0 0 0 0 0.25 0"/>
<feBlend mode="normal" in2="BackgroundImageFix" result="effect1_dropShadow_227_35"/>
<feBlend mode="normal" in="SourceGraphic" in2="effect1_dropShadow_227_35" result="shape"/>
</filter>
</defs>
</svg>
