<svg width="25" height="33" viewBox="0 0 25 33" fill="none" xmlns="http://www.w3.org/2000/svg">
<path d="M4.69239 32.9999C3.44789 32.9999 2.25436 32.4837 1.37437 31.5649C0.494377 30.6461 0 29.3999 0 28.1005C0.000860904 26.6923 0.536529 25.3421 1.48953 24.3457C2.44254 23.3494 3.73508 22.7883 5.08369 22.7856H9.375V28.1039C9.37414 29.4009 8.88072 30.6447 8.00294 31.5625C7.12515 32.4803 5.93463 32.9972 4.69239 32.9999Z" fill="white"/>
<path d="M25 11.4528C25 16.5082 22.3688 20.8653 17.2029 22.2764C15.9539 22.6194 14.6705 22.7904 13.3826 22.7856H9.58566V12.0093H9.54903C9.23504 11.9696 8.91919 11.9502 8.60312 11.9511C6.45473 11.9502 4.3831 12.8234 2.79245 14.4003C1.20179 15.9772 0.206225 18.1446 0 20.4798V4.81534C0.000882913 3.5379 0.466227 2.31311 1.29375 1.41016C2.12128 0.50721 3.24328 -3.63815e-07 4.41314 0H13.3826C21.0698 0 25 4.70987 25 11.4528Z" fill="#BF6DFF"/>
</svg>
