<svg width="85" height="85" viewBox="0 0 85 85" fill="none" xmlns="http://www.w3.org/2000/svg">
<g clip-path="url(#clip0_227_39)" filter="url(#filter0_d_227_39)">
<path d="M17.6354 0H67.3646C74.9042 0 81 6.25214 81 13.985V63.015C81 70.7479 74.9042 77 67.3646 77H17.6354C10.0958 77 4 70.7479 4 63.015V13.985C4 6.25214 10.0958 0 17.6354 0Z" fill="#001E36"/>
<path d="M21.325 53.9988V20.1385C21.325 19.9082 21.4212 19.7765 21.6458 19.7765C22.1912 19.7765 22.7045 19.7765 23.4425 19.7436C24.2125 19.7107 25.0145 19.7107 25.8808 19.6778C26.747 19.6449 27.6775 19.6449 28.672 19.612C29.6666 19.5791 30.6291 19.5791 31.5916 19.5791C34.2225 19.5791 36.4041 19.9082 38.2008 20.5992C39.805 21.1586 41.2808 22.08 42.5 23.2975C43.5266 24.3505 44.3287 25.6338 44.842 27.0488C45.3233 28.4308 45.58 29.8458 45.58 31.3265C45.58 34.1565 44.9383 36.4928 43.655 38.3355C42.3716 40.1782 40.575 41.5603 38.4895 42.35C36.3079 43.1727 33.9016 43.4688 31.2708 43.4688C30.5008 43.4688 29.9875 43.4688 29.6666 43.4359C29.3458 43.403 28.8966 43.403 28.287 43.403V53.9659C28.3191 54.1962 28.1587 54.3936 27.9341 54.4265C27.902 54.4265 27.87 54.4265 27.8058 54.4265H21.71C21.4533 54.4265 21.325 54.2949 21.325 53.9988ZM28.3191 26.1274V37.1838C28.7683 37.2167 29.1854 37.2496 29.5704 37.2496H31.2708C32.522 37.2496 33.7733 37.0522 34.9604 36.6573C35.987 36.3612 36.8854 35.7359 37.5912 34.9133C38.2649 34.0906 38.5858 32.9718 38.5858 31.524C38.6179 30.5039 38.3612 29.4838 37.8479 28.5953C37.3025 27.7398 36.5325 27.0817 35.602 26.7197C34.415 26.2261 33.1316 26.0287 31.8162 26.0616C30.982 26.0616 30.2441 26.0616 29.6345 26.0945C28.9929 26.0616 28.5437 26.0945 28.3191 26.1274Z" fill="#31A8FF"/>
<path d="M65.6 35.1765C64.6375 34.65 63.6108 34.288 62.52 34.0577C61.3329 33.7944 60.1458 33.6299 58.9266 33.6299C58.285 33.597 57.6112 33.6957 57.0016 33.8603C56.5845 33.959 56.2316 34.1893 56.007 34.5184C55.8466 34.7816 55.7504 35.1107 55.7504 35.4068C55.7504 35.703 55.8787 35.9991 56.0712 36.2624C56.36 36.6244 56.745 36.9205 57.162 37.1509C57.9 37.5457 58.67 37.9077 59.44 38.2368C61.1725 38.8291 62.8408 39.6517 64.3808 40.6389C65.4395 41.3299 66.3058 42.2513 66.9154 43.3701C67.4287 44.4231 67.6854 45.5748 67.6533 46.7594C67.6854 48.306 67.2362 49.8526 66.402 51.1359C65.5037 52.4521 64.2525 53.4722 62.8087 54.0645C61.2366 54.7556 59.3116 55.1175 57.0016 55.1175C55.5258 55.1175 54.082 54.9859 52.6383 54.6897C51.5154 54.4923 50.3925 54.1303 49.3658 53.6368C49.1412 53.5051 48.9808 53.2748 49.0129 53.0115V47.2859C49.0129 47.1872 49.045 47.0556 49.1412 46.9897C49.2375 46.9239 49.3337 46.9568 49.43 47.0226C50.6812 47.7795 51.9966 48.306 53.4083 48.635C54.6275 48.9641 55.9108 49.1286 57.1941 49.1286C58.4133 49.1286 59.2795 48.9641 59.857 48.6679C60.3704 48.4376 60.7233 47.8782 60.7233 47.2859C60.7233 46.8252 60.4666 46.3974 59.9533 45.9697C59.44 45.5419 58.3812 45.0483 56.8091 44.4231C55.1729 43.8308 53.665 43.041 52.2533 42.0538C51.2587 41.3299 50.4245 40.3756 49.815 39.2568C49.3016 38.2038 49.045 37.0521 49.077 35.9004C49.077 34.4855 49.462 33.1363 50.1679 31.9188C50.97 30.6026 52.157 29.5496 53.5366 28.8915C55.0445 28.1017 56.9375 27.7397 59.2154 27.7397C60.5308 27.7397 61.8783 27.8385 63.1937 28.0359C64.1562 28.1675 65.0866 28.4308 65.9529 28.7927C66.0812 28.8256 66.2095 28.9573 66.2737 29.0889C66.3058 29.2205 66.3379 29.3521 66.3379 29.4838V34.8474C66.3379 34.9791 66.2737 35.1107 66.1775 35.1765C65.8887 35.2423 65.7283 35.2423 65.6 35.1765Z" fill="#31A8FF"/>
</g>
<defs>
<filter id="filter0_d_227_39" x="0" y="0" width="85" height="85" filterUnits="userSpaceOnUse" color-interpolation-filters="sRGB">
<feFlood flood-opacity="0" result="BackgroundImageFix"/>
<feColorMatrix in="SourceAlpha" type="matrix" values="0 0 0 0 0 0 0 0 0 0 0 0 0 0 0 0 0 0 127 0" result="hardAlpha"/>
<feOffset dy="4"/>
<feGaussianBlur stdDeviation="2"/>
<feComposite in2="hardAlpha" operator="out"/>
<feColorMatrix type="matrix" values="0 0 0 0 0 0 0 0 0 0 0 0 0 0 0 0 0 0 0.25 0"/>
<feBlend mode="normal" in2="BackgroundImageFix" result="effect1_dropShadow_227_39"/>
<feBlend mode="normal" in="SourceGraphic" in2="effect1_dropShadow_227_39" result="shape"/>
</filter>
<clipPath id="clip0_227_39">
<rect width="77" height="77" fill="white" transform="translate(4)"/>
</clipPath>
</defs>
</svg>
