<svg width="118" height="118" viewBox="0 0 118 118" fill="none" xmlns="http://www.w3.org/2000/svg">
<g filter="url(#filter0_d_222_29)">
<circle cx="65" cy="58" r="49" fill="#D7A5FF"/>
</g>
<path d="M65.0083 65.4608C65.0083 65.1574 65.2542 64.9117 65.5576 64.9117H66.7217C66.292 64.9117 65.9435 64.5633 65.9435 64.1334V57.2076H64.9087C64.921 57.3312 64.8818 57.4589 64.7872 57.5536L63.7733 58.5675C63.6058 58.735 63.334 58.735 63.1666 58.5675L61.2609 56.6619L63.3465 67.145H66.6925C65.7622 67.145 65.0083 66.391 65.0083 65.4608Z" fill="#DAE6F1"/>
<path d="M59.8935 62.3163C59.8623 62.2369 59.8718 62.1471 59.9193 62.0761L60.469 61.2513C60.5471 61.134 60.5182 60.9759 60.4036 60.8942L59.3835 60.1657C59.3123 60.1148 59.2712 60.0315 59.2744 59.944L59.3968 56.5201C59.3087 56.5446 59.2209 56.5701 59.1322 56.5923L55.898 57.4064C54.9556 57.6437 54.2768 58.4662 54.2229 59.4364L53.7757 67.1451H61.7895L59.8935 62.3163Z" fill="#3A70BF"/>
<path d="M61.2609 56.6617L60.9009 56.3016C60.8266 56.2274 60.7872 56.1326 60.7788 56.0358C60.3297 56.2279 59.8677 56.3887 59.397 56.5198L59.2747 59.9437C59.2716 60.0312 59.3126 60.1144 59.3838 60.1654L60.4038 60.8938C60.5184 60.9758 60.5473 61.1339 60.4693 61.251L59.9195 62.0758C59.8721 62.1468 59.8625 62.2366 59.8937 62.316L61.7898 67.1448H63.3465L61.2609 56.6617Z" fill="#5290DB"/>
<path d="M64.9087 57.2076C64.9209 57.3313 64.8817 57.459 64.7871 57.5537L63.9375 58.4034L63.9589 58.4571L64.7246 59.6056H65.9432V57.2076H64.9087Z" fill="#FC657E"/>
<path d="M65.0083 65.4607C65.0083 65.1573 65.2542 64.9115 65.5576 64.9115H66.7217C66.292 64.9115 65.9435 64.5632 65.9435 64.1333V59.6053H64.7246L63.3465 67.1448H66.6924C65.7622 67.1448 65.0083 66.3909 65.0083 65.4607Z" fill="#FC657E"/>
<path d="M65.8133 59.1269H64.9805L64.3569 58.1915C64.2105 57.9718 63.913 57.9124 63.6933 58.0588C63.4735 58.2055 63.414 58.5025 63.5606 58.7224L64.3263 59.8709C64.4151 60.0039 64.5644 60.0839 64.7244 60.0839H65.8131C66.0774 60.0839 66.2916 59.8697 66.2916 59.6054C66.2916 59.3411 66.0776 59.1269 65.8133 59.1269Z" fill="#222222"/>
<path d="M64.805 59.1662C64.5464 59.1183 64.2959 59.2908 64.2484 59.5509L62.9007 66.9235C62.8531 67.1832 63.0253 67.4326 63.2854 67.4801C63.3143 67.4855 63.3434 67.4879 63.372 67.4879C63.5986 67.4879 63.7997 67.3262 63.8421 67.0954L65.1897 59.7228C65.2374 59.463 65.0649 59.2136 64.805 59.1662Z" fill="#222222"/>
<path d="M86.1994 67.145H44.781C44.0617 67.145 43.4785 67.7282 43.4785 68.4475C43.4785 69.1668 44.0617 69.7501 44.781 69.7501H86.1996C86.9189 69.7501 87.5021 69.1668 87.5021 68.4475C87.502 67.7282 86.9187 67.145 86.1994 67.145Z" fill="#AD7753"/>
<path d="M44.9193 69.7501C44.9734 70.8645 45.8991 71.7599 47.0261 71.7599H83.9543C85.0815 71.7599 86.0069 70.8645 86.0611 69.7501H44.9193Z" fill="#8E6244"/>
<path d="M83.9542 71.7597H47.0262C46.9429 71.7597 46.8612 71.7533 46.7803 71.7438V80.84C46.7803 81.2163 47.0854 81.5214 47.4617 81.5214H83.5188C83.8951 81.5214 84.2002 81.2163 84.2002 80.84V71.7438C84.1194 71.7533 84.0377 71.7597 83.9542 71.7597Z" fill="#8E6244"/>
<path d="M64.7872 56.9468L62.5215 54.6812C62.354 54.5137 62.0822 54.5137 61.9147 54.6812L60.9008 55.695C60.7334 55.8625 60.7334 56.1343 60.9008 56.3018L63.1665 58.5675C63.334 58.7349 63.6058 58.7349 63.7733 58.5675L64.7872 57.5536C64.9546 57.3861 64.9546 57.1143 64.7872 56.9468Z" fill="#EDF4FC"/>
<path d="M65.4902 53.5235C64.5565 53.5235 63.6747 53.2917 62.8976 52.885V53.8009C62.8976 54.155 62.8009 54.4942 62.6277 54.7876L64.787 56.9468C64.8599 57.0198 64.8989 57.1124 64.9085 57.2075H65.9433V53.5031C65.7936 53.5151 65.6429 53.5235 65.4902 53.5235Z" fill="#F9D0B4"/>
<path d="M71.1168 42.7948C71.1135 42.6352 70.9859 42.5037 70.8262 42.4989C68.4884 42.4304 67.2565 41.5038 66.7832 41.0398C66.654 40.9131 66.4453 40.9265 66.3328 41.0682C64.2773 43.6531 61.2452 43.2883 60.2256 43.0749C60.0403 43.036 59.8625 43.1757 59.8625 43.365V47.8958C59.8625 50.991 62.3948 53.5233 65.49 53.5233C65.6426 53.5233 65.7934 53.5153 65.9431 53.5034V53.3461C65.9431 52.9162 66.2915 52.5679 66.7213 52.5679H68.6168C70.1221 51.5551 71.1176 49.8363 71.1176 47.8958V42.8829C71.1178 42.8534 71.1176 42.8241 71.1168 42.7948Z" fill="#F9D0B4"/>
<path d="M69.8939 36.8254C69.2942 36.8254 68.7336 36.9948 68.2518 37.2838C67.689 36.3446 66.6637 35.7104 65.495 35.7104H63.8443C60.6495 35.7104 58.0355 38.3245 58.0355 41.5192V44.122C58.4374 43.8002 58.9466 43.6069 59.5015 43.6069C59.6243 43.6069 59.7447 43.6173 59.8626 43.6354V43.365C59.8628 43.1757 60.0405 43.0359 60.2257 43.0748C61.2452 43.2882 64.2774 43.653 66.3329 41.0681C66.4455 40.9265 66.6541 40.9131 66.7833 41.0398C67.2567 41.5037 68.4884 42.4303 70.8264 42.4989C70.986 42.5036 71.1137 42.6351 71.1169 42.7948C71.1175 42.8241 71.1179 42.8533 71.1179 42.8828V43.6356C71.2356 43.6174 71.3562 43.6071 71.4791 43.6071C72.1124 43.6071 72.6861 43.8588 73.1087 44.2663V40.0399C73.1085 38.2718 71.6619 36.8254 69.8939 36.8254Z" fill="#754E34"/>
<path d="M71.4789 43.6069C71.356 43.6069 71.2356 43.6173 71.1177 43.6356V47.896C71.1177 48.0229 71.112 48.1484 71.1036 48.2734C71.2261 48.2931 71.3509 48.3061 71.4789 48.3061C72.7765 48.3061 73.8284 47.2542 73.8284 45.9566C73.8284 44.6589 72.7765 43.6069 71.4789 43.6069Z" fill="#F9D0B4"/>
<path d="M59.8627 47.896V43.6356C59.745 43.6175 59.6244 43.6069 59.5016 43.6069C58.204 43.6069 57.152 44.6589 57.152 45.9564C57.152 47.254 58.204 48.306 59.5016 48.306C59.6296 48.306 59.7544 48.2929 59.8769 48.2732C59.8685 48.1484 59.8627 48.0229 59.8627 47.896Z" fill="#F9D0B4"/>
<path d="M67.4803 48.8643C67.278 48.6945 66.9758 48.7213 66.8064 48.9238C66.5533 49.2257 66.1204 49.4062 65.6484 49.4062C65.1764 49.4062 64.7434 49.2258 64.4903 48.9236C64.32 48.7207 64.0187 48.6947 63.8162 48.8643C63.6137 49.0341 63.5873 49.3359 63.7569 49.5384C64.1898 50.0546 64.8969 50.363 65.6484 50.363C66.4002 50.363 67.1073 50.0548 67.5398 49.5382C67.7096 49.3357 67.683 49.0341 67.4803 48.8643Z" fill="#222222"/>
<path d="M67.9839 45.536C67.5871 45.536 67.2654 45.8577 67.2654 46.2545C67.2654 46.6512 67.5871 46.9729 67.9839 46.9729C68.3806 46.9729 68.7023 46.6512 68.7023 46.2545C68.7023 45.8577 68.3806 45.536 67.9839 45.536Z" fill="#222222"/>
<path d="M63.161 45.536C62.7642 45.536 62.4425 45.8577 62.4425 46.2545C62.4425 46.6512 62.7642 46.9729 63.161 46.9729C63.5577 46.9729 63.8794 46.6512 63.8794 46.2545C63.8794 45.8577 63.5577 45.536 63.161 45.536Z" fill="#222222"/>
<path d="M57.7365 60.822C57.4722 60.822 57.258 61.0362 57.258 61.3005V66.7786C57.258 67.0429 57.4722 67.2571 57.7365 67.2571C58.0009 67.2571 58.215 67.0429 58.215 66.7786V61.3005C58.215 61.0364 58.0009 60.822 57.7365 60.822Z" fill="#222222"/>
<path d="M65.1252 56.6084L62.8598 54.3428C62.6883 54.1713 62.4605 54.0769 62.218 54.0769C61.9755 54.0769 61.7477 54.1713 61.5762 54.3428L60.5623 55.3566C60.2082 55.7106 60.2082 56.2863 60.5623 56.6402L62.828 58.9059C62.9995 59.0774 63.2273 59.1718 63.4698 59.1718C63.7123 59.1718 63.9401 59.0774 64.1116 58.9059L65.1254 57.892C65.2969 57.7205 65.3915 57.4925 65.3915 57.2502C65.3913 57.0077 65.2967 56.7798 65.1252 56.6084ZM63.4698 58.1942L61.274 55.9982L62.218 55.0542L64.4138 57.2502L63.4698 58.1942Z" fill="#222222"/>
<path d="M65.7493 56.7289H64.9851C64.7206 56.7289 64.5064 56.9432 64.5064 57.2076C64.5064 57.472 64.7206 57.6863 64.9851 57.6863H65.7493C66.0138 57.6863 66.228 57.472 66.228 57.2076C66.228 56.9432 66.0136 56.7289 65.7493 56.7289Z" fill="#222222"/>
<path d="M62.8976 52.5487C62.6332 52.5487 62.4191 52.7629 62.4191 53.0272V53.8007C62.4191 54.0346 62.3618 54.2679 62.2535 54.476C62.1314 54.7104 62.2227 54.9993 62.457 55.1214C62.5276 55.158 62.6032 55.1756 62.6775 55.1756C62.8501 55.1756 63.0168 55.0818 63.1024 54.9177C63.2815 54.5738 63.3761 54.1875 63.3761 53.8005V53.027C63.3761 52.7629 63.1619 52.5487 62.8976 52.5487Z" fill="#222222"/>
<path d="M61.1412 55.8845C61.039 55.6407 60.7584 55.5252 60.5152 55.628C60.028 55.8319 59.5235 56.0003 59.0155 56.1282L55.7813 56.9422C54.6294 57.2322 53.8112 58.2239 53.7451 59.4089L53.3057 66.987C53.2903 67.2508 53.4919 67.4772 53.7558 67.4925C53.7652 67.4931 53.7746 67.4933 53.7838 67.4933C54.0353 67.4933 54.2464 67.2969 54.2611 67.0425L54.7006 59.4632C54.7433 58.6978 55.2714 58.0577 56.0148 57.8707L59.249 57.0565C59.8033 56.917 60.3536 56.7334 60.8848 56.5108C61.1286 56.4086 61.2435 56.1282 61.1412 55.8845Z" fill="#222222"/>
<path d="M71.5954 42.7853C71.5871 42.3686 71.2556 42.0327 70.8407 42.0207C68.6328 41.956 67.5022 41.0743 67.1186 40.698C66.9603 40.543 66.7423 40.4603 66.5229 40.476C66.3022 40.4896 66.0965 40.5972 65.9588 40.7706C64.103 43.104 61.4001 42.8316 60.324 42.6066C60.0936 42.5583 59.8549 42.6157 59.6711 42.765C59.4893 42.9126 59.3848 43.1314 59.3846 43.3689V47.8959C59.3846 51.2627 62.1238 54.0017 65.4907 54.0017C65.5904 54.0017 65.6895 53.9992 65.7881 53.9947C66.0521 53.9822 66.2559 53.7583 66.2435 53.4941C66.231 53.2302 66.0029 53.0265 65.7429 53.0388C65.6593 53.0428 65.5753 53.0447 65.4909 53.0447C62.6517 53.0447 60.3418 50.735 60.3418 47.8959V43.5841C61.5019 43.7872 64.4869 44.0061 66.5888 41.5123C67.2114 42.0683 68.4726 42.8684 70.6401 42.9706V47.8959C70.6401 49.567 69.8161 51.1435 68.4362 52.1126C68.2199 52.2645 68.1677 52.5629 68.3196 52.779C68.4716 52.9955 68.7702 53.0476 68.9861 52.8956C70.6209 51.7475 71.5971 49.8783 71.5971 47.8957V42.8828L71.5954 42.7853Z" fill="#222222"/>
<path d="M69.8939 36.347C69.3824 36.347 68.8758 36.4559 68.4064 36.6649C67.7099 35.7716 66.6308 35.2321 65.495 35.2321H63.8443C60.3775 35.2321 57.557 38.0524 57.557 41.5194V44.0017C57.557 44.266 57.7712 44.4802 58.0355 44.4802C58.2998 44.4802 58.514 44.266 58.514 44.0017V41.5194C58.514 38.5803 60.905 36.1891 63.8443 36.1891H65.495C66.4466 36.1891 67.3457 36.7028 67.8412 37.5299C67.9065 37.6386 68.0123 37.7173 68.1354 37.7481C68.2583 37.7791 68.3888 37.7598 68.4979 37.6943C68.9236 37.4392 69.4062 37.3042 69.8939 37.3042C71.4025 37.3042 72.63 38.5315 72.63 40.0402V44.1558C72.63 44.4201 72.8442 44.6343 73.1085 44.6343C73.3729 44.6343 73.5871 44.4201 73.5871 44.1558V40.04C73.5871 38.0038 71.9302 36.347 69.8939 36.347Z" fill="#222222"/>
<path d="M71.479 43.1285C71.4003 43.1285 71.3224 43.1322 71.2453 43.1387C70.9821 43.1611 70.7866 43.3929 70.8092 43.6562C70.8316 43.9194 71.0632 44.1131 71.3268 44.0923C71.3769 44.0881 71.4275 44.0856 71.479 44.0856C72.5108 44.0856 73.35 44.9249 73.35 45.9566C73.35 46.9882 72.5106 47.8276 71.479 47.8276C71.4219 47.8276 71.3658 47.8241 71.3103 47.8184C71.0481 47.7897 70.8123 47.9818 70.7849 48.2448C70.7574 48.5076 70.9484 48.7431 71.2114 48.7702C71.304 48.78 71.3915 48.7846 71.479 48.7846C73.0383 48.7846 74.307 47.516 74.307 45.9566C74.307 44.3972 73.0385 43.1285 71.479 43.1285Z" fill="#222222"/>
<path d="M59.6436 47.8209C59.5969 47.8249 59.5496 47.8276 59.5016 47.8276C58.4697 47.8276 57.6306 46.9882 57.6306 45.9566C57.6306 44.9249 58.4699 44.0856 59.5016 44.0856C59.5509 44.0856 59.5999 44.0879 59.6482 44.0917C59.9144 44.112 60.1424 43.9162 60.1632 43.6528C60.1841 43.3892 59.9877 43.1588 59.7244 43.1377C59.6507 43.132 59.5768 43.1285 59.5016 43.1285C57.9422 43.1285 56.6735 44.3972 56.6735 45.9566C56.6735 47.516 57.9422 48.7846 59.5016 48.7846C59.5783 48.7846 59.6541 48.7808 59.7289 48.7741C59.9921 48.7505 60.1866 48.5182 60.1631 48.2548C60.1391 47.9916 59.9085 47.7958 59.6436 47.8209Z" fill="#222222"/>
<path d="M80.8752 52.568H66.7215C66.2918 52.568 65.9433 52.9164 65.9433 53.3462V64.1335C65.9433 64.5634 66.2916 64.9118 66.7215 64.9118H80.8752C81.305 64.9118 81.6535 64.5634 81.6535 64.1335V53.3462C81.6535 52.9165 81.305 52.568 80.8752 52.568Z" fill="#EDF4FC"/>
<path d="M82.0394 64.9115H65.5576C65.2542 64.9115 65.0083 65.1575 65.0083 65.4606C65.0083 66.3909 65.7622 67.1448 66.6925 67.1448H80.9044C81.8346 67.1448 82.5886 66.3909 82.5886 65.4606C82.5886 65.1575 82.3428 64.9115 82.0394 64.9115Z" fill="#DAE6F1"/>
<path d="M75.1076 58.2615H72.4892C72.2248 58.2615 72.0107 58.4757 72.0107 58.74C72.0107 59.0043 72.2248 59.2185 72.4892 59.2185H75.1076C75.372 59.2185 75.5861 59.0043 75.5861 58.74C75.5861 58.4757 75.372 58.2615 75.1076 58.2615Z" fill="#222222"/>
<path d="M80.8752 52.0894H66.7217C66.0286 52.0894 65.4649 52.653 65.4649 53.3461V64.1332C65.4649 64.8261 66.0286 65.3898 66.7217 65.3898H80.8752C81.5681 65.3898 82.1318 64.8261 82.1318 64.1332V53.3461C82.1318 52.6532 81.5681 52.0894 80.8752 52.0894ZM81.1748 64.1334C81.1748 64.2986 81.0404 64.433 80.8752 64.433H66.7217C66.5565 64.433 66.422 64.2986 66.422 64.1334V53.3463C66.422 53.1811 66.5565 53.0466 66.7217 53.0466H80.8752C81.0404 53.0466 81.1748 53.1811 81.1748 53.3463V64.1334Z" fill="#222222"/>
<path d="M82.0394 64.4332H65.5576C64.9909 64.4332 64.5298 64.8943 64.5298 65.4611C64.5298 66.6535 65.4998 67.6238 66.6925 67.6238H80.9046C82.097 67.6238 83.0673 66.6537 83.0673 65.4611C83.0671 64.8943 82.6062 64.4332 82.0394 64.4332ZM80.9044 66.6667H66.6923C66.0273 66.6667 65.4866 66.126 65.4866 65.4611C65.4866 65.422 65.5184 65.3903 65.5574 65.3903H82.0392C82.0781 65.3903 82.1099 65.422 82.1099 65.4611C82.1101 66.1258 81.5693 66.6667 80.9044 66.6667Z" fill="#222222"/>
<path d="M52.4946 57.3844C51.6332 57.2313 50.9633 56.5613 50.791 55.7191C50.791 55.6809 50.7145 55.6809 50.7145 55.7191C50.5422 56.5613 49.8723 57.2313 49.011 57.3844C48.9727 57.3844 48.9727 57.4418 49.011 57.4609C49.8723 57.6141 50.5422 58.284 50.7145 59.1262C50.7145 59.1645 50.791 59.1645 50.791 59.1262C50.9633 58.284 51.6332 57.6141 52.4946 57.4609C52.5328 57.442 52.5328 57.3844 52.4946 57.3844Z" fill="#F5C84C"/>
<path d="M78.6331 48.3527C78.0289 48.2454 77.5588 47.7753 77.4378 47.1844C77.4378 47.1576 77.384 47.1576 77.384 47.1844C77.2632 47.7753 76.7931 48.2454 76.1887 48.3527C76.1619 48.3527 76.1619 48.3929 76.1887 48.4065C76.7929 48.5141 77.263 48.984 77.384 49.5749C77.384 49.6017 77.4378 49.6017 77.4378 49.5749C77.5588 48.984 78.0287 48.5139 78.6331 48.4065C78.6599 48.3929 78.6599 48.3527 78.6331 48.3527Z" fill="#70D6F9"/>
<path d="M77.8845 36.1863H77.4443V35.746C77.4443 35.4207 77.1763 35.1335 76.8318 35.1335C76.4873 35.1335 76.2193 35.4015 76.2193 35.746V36.1863H75.779C75.4537 36.1863 75.1665 36.4542 75.1665 36.7988C75.1665 37.1433 75.4345 37.4113 75.779 37.4113H76.2193V37.8515C76.2193 38.1769 76.4873 38.464 76.8318 38.464C77.1763 38.464 77.4443 38.196 77.4443 37.8515V37.4113H77.8845C78.2099 37.4113 78.497 37.1433 78.497 36.7988C78.497 36.4544 78.229 36.1863 77.8845 36.1863Z" fill="#87D147"/>
<path d="M49.0112 61.9023C48.6516 61.9023 48.3601 62.1938 48.3601 62.5534C48.3601 62.913 48.6516 63.2045 49.0112 63.2045C49.3708 63.2045 49.6622 62.913 49.6622 62.5534C49.6622 62.1938 49.3708 61.9023 49.0112 61.9023Z" fill="#FC657E"/>
<path d="M72.5446 33C72.185 33 71.8936 33.2914 71.8936 33.6511C71.8936 34.0107 72.185 34.3021 72.5446 34.3021C72.9043 34.3021 73.1957 34.0107 73.1957 33.6511C73.1957 33.2914 72.9043 33 72.5446 33Z" fill="#F5C84C"/>
<path d="M86.1994 66.6667H44.781C43.7989 66.6667 43 67.4657 43 68.4478C43 69.4299 43.7989 70.2288 44.781 70.2288H86.1996C87.1817 70.2288 87.9807 69.4299 87.9807 68.4478C87.9807 67.4657 87.1815 66.6667 86.1994 66.6667ZM86.1994 69.2716H44.781C44.3266 69.2716 43.957 68.902 43.957 68.4476C43.957 67.9932 44.3266 67.6236 44.781 67.6236H86.1996C86.654 67.6236 87.0236 67.9932 87.0236 68.4476C87.0236 68.902 86.6538 69.2716 86.1994 69.2716Z" fill="#222222"/>
<path d="M86.1039 69.409C85.8438 69.3788 85.6045 69.5681 85.5747 69.8309C85.4815 70.6578 84.7846 71.2814 83.9541 71.2814H47.0262C46.1973 71.2814 45.4843 70.6339 45.4033 69.8074C45.3773 69.5444 45.1424 69.3533 44.8804 69.3778C44.6174 69.4037 44.425 69.6378 44.4509 69.9008C44.5818 71.2335 45.6889 72.2384 47.0262 72.2384H83.9542C85.2723 72.2384 86.3778 71.2496 86.526 69.9381C86.5555 69.6755 86.3665 69.4387 86.1039 69.409Z" fill="#222222"/>
<path d="M84.2002 71.377C83.9358 71.377 83.7217 71.5911 83.7217 71.8555V80.8399C83.7217 80.9519 83.6305 81.043 83.5186 81.043H47.4618C47.3499 81.043 47.2588 80.9519 47.2588 80.8399V71.9154C47.2588 71.651 47.0446 71.4369 46.7803 71.4369C46.5159 71.4369 46.3017 71.651 46.3017 71.9154V80.8399C46.3017 81.4796 46.8222 82 47.4618 82H83.5188C84.1584 82 84.6789 81.4796 84.6789 80.8399V71.8555C84.6787 71.5911 84.4645 71.377 84.2002 71.377Z" fill="#222222"/>
<path d="M63.7886 66.9154L61.7372 56.604C61.6853 56.3448 61.4336 56.1773 61.1744 56.228C60.9153 56.2797 60.747 56.5316 60.7985 56.7908L62.85 67.1022C62.8954 67.3298 63.0952 67.4873 63.3187 67.4873C63.3498 67.4873 63.3811 67.4843 63.4127 67.4781C63.6719 67.4267 63.8403 67.1748 63.7886 66.9154Z" fill="#222222"/>
<path d="M62.1813 66.8335L60.3804 62.2472L60.8673 61.517C61.0901 61.183 61.0086 60.7385 60.6819 60.505L59.757 59.8443L59.8713 56.6419C59.8808 56.3777 59.6743 56.1561 59.4102 56.1467C59.1533 56.1352 58.9244 56.3436 58.915 56.6078L58.7965 59.9268C58.7873 60.176 58.9033 60.411 59.1056 60.5552L59.9543 61.1613L59.521 61.8112C59.3876 62.0118 59.36 62.2658 59.4481 62.4918L61.2905 67.1838C61.3646 67.3723 61.5451 67.4875 61.7361 67.4875C61.7943 67.4875 61.8533 67.4768 61.9109 67.4542C62.1568 67.3572 62.278 67.0794 62.1813 66.8335Z" fill="#222222"/>
<defs>
<filter id="filter0_d_222_29" x="0" y="0" width="118" height="118" filterUnits="userSpaceOnUse" color-interpolation-filters="sRGB">
<feFlood flood-opacity="0" result="BackgroundImageFix"/>
<feColorMatrix in="SourceAlpha" type="matrix" values="0 0 0 0 0 0 0 0 0 0 0 0 0 0 0 0 0 0 127 0" result="hardAlpha"/>
<feOffset dx="-6" dy="1"/>
<feGaussianBlur stdDeviation="5"/>
<feComposite in2="hardAlpha" operator="out"/>
<feColorMatrix type="matrix" values="0 0 0 0 0.2144 0 0 0 0 0.0100001 0 0 0 0 0.375 0 0 0 0.46 0"/>
<feBlend mode="normal" in2="BackgroundImageFix" result="effect1_dropShadow_222_29"/>
<feBlend mode="normal" in="SourceGraphic" in2="effect1_dropShadow_222_29" result="shape"/>
</filter>
</defs>
</svg>
